#!OML:ASF F:\VICON\USERDATA\INSTALL\rory3\rory3.ASF
:FULLY-SPECIFIED
:DEGREES
263
root 1.27784 16.6219 27.8242 34.2518 5.91009 0.324751
lowerback -14.965 -3.03143 1.83028
upperback -13.3682 -4.11281 3.26629
thorax -5.80727 -2.07689 2.04543
lowerneck -11.5537 -0.365282 -1.72275
upperneck 45.082 0.254597 -0.96414
head 19.2669 -0.355865 -0.120867
rclavicle 8.75895e-016 1.59028e-015
rhumerus -13.3431 -19.0514 -5.67622
rradius 23.2446
rwrist 9.84836
rhand 18.9056 5.77409
rfingers 7.12502
rthumb 43.5143 -18.2876
lclavicle 8.75895e-016 1.59028e-015
lhumerus 51.9641 13.016 13.3539
lradius 35.4319
lwrist -15.6401
lhand 16.8572 15.4086
lfingers 7.12502
lthumb 41.5969 40.1322
rfemur -58.3857 5.14215 28.8119
rtibia 39.7042
rfoot -49.7476 -35.3124
rtoes 37.0936
lfemur -13.0698 -3.39721 -24.6253
ltibia 29.2263
lfoot -4.56604 43.8743
ltoes 38.9564
264
root 1.27516 16.6156 27.8121 34.2827 5.91733 0.421629
lowerback -14.9829 -3.06532 1.71326
upperback -13.3753 -4.14768 3.23218
thorax -5.79864 -2.08721 2.06995
lowerneck -11.4449 -0.354759 -1.67335
upperneck 45.1278 0.248105 -0.955235
head 19.2659 -0.348823 -0.126865
rclavicle 2.168e-014 8.74653e-015
rhumerus -13.3696 -19.7571 -5.58682
rradius 23.0495
rwrist 10.5521
rhand 19.073 5.84113
rfingers 7.12502
rthumb 43.6706 -18.1635
lclavicle 2.168e-014 8.74653e-015
lhumerus 52.0708 12.8995 13.2021
lradius 35.6041
lwrist -15.0625
lhand 18.8547 13.6311
lfingers 7.12502
lthumb 43.4667 37.7101
rfemur -58.4771 5.39033 28.5084
rtibia 39.7229
rfoot -50.0333 -35.0748
rtoes 38.135
lfemur -13.1139 -3.3999 -24.7008
ltibia 29.2028
lfoot -5.63231 43.8604
ltoes 39.9069
265
root 1.27559 16.618 27.8037 34.1869 6.11899 0.351514
lowerback -14.9004 -3.10309 1.87611
upperback -13.3738 -4.21018 3.25409
thorax -5.85029 -2.13016 2.00206
lowerneck -11.2992 -0.348426 -1.67589
upperneck 45.1648 0.254585 -0.95616
head 19.2487 -0.347149 -0.125685
rclavicle -1.18028e-015 -4.37326e-015
rhumerus -13.3291 -20.3644 -5.51296
rradius 22.8302
rwrist 11.3192
rhand 19.1768 6.08678
rfingers 7.12502
rthumb 43.7675 -17.8823
lclavicle -1.18028e-015 -4.37326e-015
lhumerus 51.9523 12.5701 12.635
lradius 35.927
lwrist -13.8485
lhand 18.6983 13.8172
lfingers 7.12502
lthumb 43.3205 37.9489
rfemur -58.3926 5.50974 28.4991
rtibia 39.7184
rfoot -50.2121 -34.894
rtoes 39.0403
lfemur -13.0277 -3.51916 -24.5259
ltibia 29.2215
lfoot -7.72544 43.6295
ltoes 41.447
266
root 1.28012 16.6227 27.7967 34.0199 6.405 0.191675
lowerback -14.8249 -3.18481 2.1789
upperback -13.2898 -4.34525 3.36067
thorax -5.80969 -2.217 1.93442
lowerneck -11.266 -0.263298 -1.60947
upperneck 45.1384 0.419115 -1.07396
head 19.222 -0.286855 -0.165096
rclavicle 2.72397e-014 -6.36111e-015
rhumerus -13.0981 -20.2466 -5.65419
rradius 22.8276
rwrist 11.1693
rhand 19.2374 6.08208
rfingers 7.12502
rthumb 43.824 -17.8661
lclavicle 2.72397e-014 -6.36111e-015
lhumerus 51.7681 12.524 12.316
lradius 36.2131
lwrist -12.8274
lhand 18.1827 14.2361
lfingers 7.12502
lthumb 42.8386 38.5389
rfemur -58.1666 5.25099 28.8638
rtibia 39.6334
rfoot -49.925 -34.979
rtoes 38.9113
lfemur -12.9318 -3.62907 -24.2338
ltibia 29.3353
lfoot -6.80784 43.5813
ltoes 40.6721
267
root 1.28184 16.6256 27.7865 33.9765 6.6059 0.0901506
lowerback -14.9809 -3.23658 2.35367
upperback -13.1373 -4.43922 3.43819
thorax -5.56269 -2.27405 1.89149
lowerneck -11.3418 -0.192981 -1.5536
upperneck 45.0609 0.558421 -1.1686
head 19.1927 -0.234259 -0.195256
rclavicle -2.43511e-014 -9.54166e-015
rhumerus -12.9457 -19.7629 -5.83077
rradius 22.9978
rwrist 10.2666
rhand 19.2262 5.34613
rfingers 7.12502
rthumb 43.8136 -18.6059
lclavicle -2.43511e-014 -9.54166e-015
lhumerus 51.9443 12.8039 12.5828
lradius 36.2896
lwrist -12.6121
lhand 18.2825 14.1546
lfingers 7.12502
lthumb 42.9319 38.4246
rfemur -58.1195 5.2066 29.0179
rtibia 39.5699
rfoot -49.9761 -35.07
rtoes 38.7695
lfemur -12.9853 -3.69622 -24.0317
ltibia 29.4265
lfoot -5.28334 43.6482
ltoes 39.58
268
root 1.27968 16.626 27.7765 34.0221 6.53573 0.223234
lowerback -15.1195 -3.25 2.1478
upperback -13.053 -4.44451 3.42034
thorax -5.37902 -2.26203 1.97135
lowerneck -11.4019 -0.172377 -1.5392
upperneck 45.0409 0.612826 -1.21683
head 19.1972 -0.215847 -0.21106
rclavicle 1.53561e-014 9.54166e-015
rhumerus -12.9029 -20.2184 -5.7822
rradius 22.9123
rwrist 10.4626
rhand 19.2958 5.24204
rfingers 7.12502
rthumb 43.8786 -18.686
lclavicle 1.53561e-014 9.54166e-015
lhumerus 52.2611 12.9401 12.8326
lradius 36.2495
lwrist -12.337
lhand 18.3593 14.0681
lfingers 7.12502
lthumb 43.0037 38.3128
rfemur -58.1915 5.39164 28.7083
rtibia 39.531
rfoot -50.5613 -34.8166
rtoes 39.3179
lfemur -13.0926 -3.61768 -24.1833
ltibia 29.5038
lfoot -5.53736 43.593
ltoes 39.8899
269
root 1.28087 16.6266 27.7663 33.9166 6.62411 0.296205
lowerback -15.129 -3.27194 2.13012
upperback -12.8981 -4.47787 3.37531
thorax -5.20198 -2.27919 1.91998
lowerneck -11.5295 -0.169811 -1.53489
upperneck 45.0616 0.591507 -1.15079
head 19.2469 -0.214776 -0.18372
rclavicle 1.28962e-014 7.15625e-015
rhumerus -12.9987 -20.3122 -5.78493
rradius 22.9641
rwrist 10.3109
rhand 19.3104 5.16025
rfingers 7.12502
rthumb 43.8921 -18.7628
lclavicle 1.28962e-014 7.15625e-015
lhumerus 52.5773 13.1707 13.116
lradius 36.2846
lwrist -12.0497
lhand 18.6981 14.0895
lfingers 7.12502
lthumb 43.3204 38.2213
rfemur -58.1214 5.30573 28.6413
rtibia 39.529
rfoot -50.6728 -34.8124
rtoes 39.3999
lfemur -13.0125 -3.60109 -24.2113
ltibia 29.5312
lfoot -5.92063 43.5448
ltoes 40.4828
270
root 1.28567 16.6301 27.7576 33.8379 6.74637 0.303637
lowerback -15.2855 -3.28782 2.21946
upperback -12.6951 -4.51982 3.36668
thorax -4.9007 -2.30652 1.83484
lowerneck -11.7535 -0.181669 -1.62327
upperneck 45.1362 0.545902 -1.01075
head 19.3605 -0.230459 -0.108257
rclavicle -5.19449e-014 -1.59028e-014
rhumerus -13.1184 -20.179 -5.78771
rradius 23.1515
rwrist 9.97338
rhand 19.4278 5.11659
rfingers 7.12502
rthumb 44.0017 -18.7657
lclavicle -5.19449e-014 -1.59028e-014
lhumerus 52.6948 13.3384 13.1275
lradius 36.4484
lwrist -11.3687
lhand 18.6553 14.1419
lfingers 7.12502
lthumb 43.2804 38.288
rfemur -58.0804 4.85586 28.9098
rtibia 39.5377
rfoot -50.0676 -35.239
rtoes 38.0446
lfemur -12.9599 -3.67196 -24.1759
ltibia 29.5415
lfoot -6.08644 43.5876
ltoes 40.3332
271
root 1.28459 16.6299 27.754 33.8441 6.58543 0.501683
lowerback -15.2632 -3.31186 1.95179
upperback -12.733 -4.52307 3.32961
thorax -4.93506 -2.29122 1.94673
lowerneck -11.7278 -0.183228 -1.73869
upperneck 45.2759 0.525373 -0.88848
head 19.4466 -0.243519 -0.0317985
rclavicle 2.43511e-014 7.15625e-015
rhumerus -13.0697 -21.0875 -5.69461
rradius 22.9446
rwrist 11.008
rhand 19.6312 5.39445
rfingers 7.12502
rthumb 44.1913 -18.4167
lclavicle 2.43511e-014 7.15625e-015
lhumerus 52.6955 13.1513 13.039
lradius 36.5779
lwrist -10.582
lhand 18.5944 13.9291
lfingers 7.12502
lthumb 43.2235 38.0956
rfemur -58.0733 4.8358 28.6633
rtibia 39.5163
rfoot -50.2342 -35.2705
rtoes 37.5078
lfemur -13.005 -3.73841 -24.4411
ltibia 29.5907
lfoot -3.89773 43.8014
ltoes 38.5334
272
root 1.28489 16.6328 27.752 33.7458 6.67863 0.46599
lowerback -15.7872 -3.30848 1.96444
upperback -12.2113 -4.55213 3.3385
thorax -4.0815 -2.305 1.88159
lowerneck -12.2695 -0.210215 -1.74881
upperneck 45.0545 0.488197 -0.85248
head 19.4541 -0.253403 -0.0177651
rclavicle -2.48481e-014 1.98785e-014
rhumerus -12.8834 -22.6751 -5.70135
rradius 22.6005
rwrist 11.9941
rhand 19.7235 5.8429
rfingers 7.12502
rthumb 44.2774 -17.9357
lclavicle -2.48481e-014 1.98785e-014
lhumerus 53.0741 13.7652 13.1699
lradius 36.617
lwrist -10.2291
lhand 18.5895 13.7597
lfingers 7.12502
lthumb 43.219 37.9278
rfemur -57.9436 4.7225 28.7722
rtibia 39.4986
rfoot -50.1846 -34.8583
rtoes 38.4549
lfemur -12.9767 -3.71791 -24.3413
ltibia 29.6248
lfoot 0.319931 43.9307
ltoes 35.039
273
root 1.29432 16.6374 27.749 33.4497 7.22531 -0.00458633
lowerback -15.5125 -3.23151 2.81063
upperback -12.2575 -4.52876 3.41746
thorax -4.34191 -2.34478 1.52071
lowerneck -11.9113 -0.180149 -1.59052
upperneck 44.9029 0.582929 -1.08852
head 19.2503 -0.216622 -0.142715
rclavicle 5.04416e-014 1.11319e-014
rhumerus -13.0643 -22.4118 -5.55512
rradius 22.5401
rwrist 12.076
rhand 19.6843 6.29809
rfingers 7.12502
rthumb 44.2408 -17.4944
lclavicle 5.04416e-014 1.11319e-014
lhumerus 53.0565 13.343 12.8936
lradius 36.8325
lwrist -9.61063
lhand 18.4993 13.9568
lfingers 7.12502
lthumb 43.1346 38.155
rfemur -57.6086 3.71118 30.0402
rtibia 39.4542
rfoot -48.9986 -34.5828
rtoes 38.4407
lfemur -12.7321 -3.7045 -23.619
ltibia 29.6621
lfoot -0.0992065 43.8446
ltoes 35.7398
